<?xml version="1.0" encoding="utf-8"?>
<!-- Generator: Adobe Illustrator 24.1.1, SVG Export Plug-In . SVG Version: 6.00 Build 0)  -->
<svg version="1.1" id="Logo" xmlns="http://www.w3.org/2000/svg" xmlns:xlink="http://www.w3.org/1999/xlink" x="0px" y="0px"
	 viewBox="0 0 500 500" style="enable-background:new 0 0 500 500;" xml:space="preserve">
<style type="text/css">
	.st0{fill:url(#SVGID_1_);}
	.st1{fill:url(#SVGID_2_);}
	.st2{fill:#BC30A0;}
	.st3{fill:url(#SVGID_3_);}
</style>
<g>
	<g>
		
			<linearGradient id="SVGID_1_" gradientUnits="userSpaceOnUse" x1="422.7381" y1="463.5972" x2="61.3533" y2="20.564" gradientTransform="matrix(1 0 0 -1 0 502)">
			<stop  offset="0" style="stop-color:#AE3DAE"/>
			<stop  offset="4.687214e-02" style="stop-color:#B23BA6"/>
			<stop  offset="0.1216" style="stop-color:#BD368E"/>
			<stop  offset="0.2148" style="stop-color:#CE2E69"/>
			<stop  offset="0.3216" style="stop-color:#E62335"/>
			<stop  offset="0.418" style="stop-color:#FF1800"/>
		</linearGradient>
		<path class="st0" d="M498.5,147c-1.2-26.6-5.5-44.8-11.6-60.7c-6.4-16.4-14.9-30.4-28.8-44.2s-27.8-22.5-44.2-28.8
			c-15.9-6.2-34.1-10.4-60.7-11.6c-26.7-1.2-35.2-1.5-103-1.5c-67.9,0-76.4,0.3-103,1.5s-44.8,5.5-60.7,11.6
			C70,19.7,56,28.2,42.2,42.1S19.7,69.9,13.4,86.3C7.3,102.2,3,120.4,1.8,147c-1.2,26.7-1.5,35.2-1.5,103c0,67.9,0.3,76.4,1.5,103
			c1.2,26.6,5.5,44.8,11.6,60.7c6.4,16.4,14.9,30.4,28.8,44.2C56,471.8,70,480.4,86.4,486.7c15.9,6.2,34.1,10.4,60.7,11.6
			c26.7,1.2,35.2,1.5,103,1.5c67.9,0,76.4-0.3,103-1.5c26.6-1.2,44.8-5.5,60.7-11.6c16.4-6.4,30.4-14.9,44.2-28.8
			s22.5-27.8,28.8-44.2c6.2-15.9,10.4-34.1,11.6-60.7c1.2-26.7,1.5-35.2,1.5-103S499.7,173.6,498.5,147z M453.6,351
			c-1.1,24.4-5.2,37.7-8.6,46.4c-4.5,11.6-10,20-18.8,28.8s-17.1,14.1-28.8,18.8c-8.8,3.4-22.1,7.5-46.4,8.6
			c-26.3,1.2-34.2,1.5-101,1.5s-74.7-0.3-101-1.5c-24.4-1.1-37.7-5.2-46.4-8.6c-11.6-4.5-20-10-28.8-18.8
			c-8.8-8.8-14.1-17.1-18.8-28.8c-3.4-8.8-7.5-22.1-8.6-46.4c-1.2-26.3-1.5-34.2-1.5-101s0.3-74.7,1.5-101
			c1.1-24.4,5.2-37.7,8.6-46.4c4.5-11.6,10-20,18.8-28.8c8.8-8.8,17.1-14.1,28.8-18.8c8.8-3.4,22.1-7.5,46.4-8.6
			c26.3-1.2,34.2-1.5,101-1.5s74.7,0.3,101,1.5c24.4,1.1,37.7,5.2,46.4,8.6c11.6,4.5,20,10,28.8,18.8s14.1,17.1,18.8,28.8
			c3.4,8.8,7.5,22.1,8.6,46.4c1.2,26.3,1.5,34.2,1.5,101S454.7,324.7,453.6,351z"/>
		
			<linearGradient id="SVGID_2_" gradientUnits="userSpaceOnUse" x1="311.2346" y1="354.983" x2="179.9739" y2="134.2875" gradientTransform="matrix(1 0 0 -1 0 502)">
			<stop  offset="0" style="stop-color:#E12F6A"/>
			<stop  offset="0.1705" style="stop-color:#EA3751"/>
			<stop  offset="0.3563" style="stop-color:#F13D3E"/>
			<stop  offset="0.5467" style="stop-color:#F64133"/>
			<stop  offset="0.7469" style="stop-color:#F7422F"/>
			<stop  offset="0.7946" style="stop-color:#F74C2F"/>
			<stop  offset="0.8743" style="stop-color:#F7652F"/>
			<stop  offset="0.9757" style="stop-color:#F78F2E"/>
			<stop  offset="1" style="stop-color:#F79A2E"/>
		</linearGradient>
		<path class="st1" d="M250,121.6c-71,0-128.4,57.5-128.4,128.4c0,71,57.5,128.4,128.4,128.4S378.4,320.8,378.4,250
			C378.4,179,321,121.6,250,121.6z M250,333.3c-46,0-83.3-37.3-83.3-83.3s37.3-83.3,83.3-83.3s83.3,37.3,83.3,83.3
			S296,333.3,250,333.3z"/>
		<circle class="st2" cx="383.4" cy="116.6" r="30"/>
	</g>
	
		<linearGradient id="SVGID_3_" gradientUnits="userSpaceOnUse" x1="-431.2209" y1="522.3675" x2="-210.1535" y2="-4.8958" gradientTransform="matrix(-1 0 0 -1 -68 502)">
		<stop  offset="0.2341" style="stop-color:#9E35A5;stop-opacity:0"/>
		<stop  offset="0.4512" style="stop-color:#D42F7F;stop-opacity:0.5"/>
		<stop  offset="0.7524" style="stop-color:#F7772E"/>
		<stop  offset="0.9624" style="stop-color:#FEF780"/>
	</linearGradient>
	<path class="st3" d="M0,250c0,67.9,0.3,76.4,1.5,103c1.2,26.6,5.5,44.8,11.6,60.7c6.4,16.4,14.9,30.4,28.8,44.2
		c13.8,13.8,27.8,22.5,44.2,28.8c15.9,6.2,34.1,10.4,60.7,11.6c26.7,1.2,35.2,1.5,103,1.5c67.9,0,76.4-0.3,103-1.5
		c26.6-1.2,44.8-5.5,60.7-11.6c16.4-6.4,30.4-14.9,44.2-28.8c13.8-13.8,22.5-27.8,28.8-44.2c6.2-15.9,10.4-34.1,11.6-60.7
		c1.2-26.7,1.5-35.2,1.5-103c0-67.9-0.3-76.4-1.5-103s-5.5-44.8-11.6-60.7c-6.4-16.4-14.9-30.4-28.8-44.2
		C444,28.2,430,19.6,413.6,13.3c-15.9-6.2-34.1-10.4-60.7-11.6c-26.7-1.2-35.2-1.5-103-1.5c-67.9,0-76.4,0.3-103,1.5
		s-44.8,5.5-60.7,11.6c-16.4,6.4-30.4,14.9-44.2,28.8S19.5,69.9,13.2,86.3C7,102.2,2.7,120.4,1.5,147C0.3,173.6,0,182.1,0,250z
		 M45.1,250c0-66.7,0.3-74.7,1.5-101c1.1-24.4,5.2-37.7,8.6-46.4c4.5-11.6,10-20,18.8-28.8s17.1-14.1,28.8-18.8
		c8.8-3.4,22.1-7.5,46.4-8.6c26.3-1.2,34.2-1.5,101-1.5s74.7,0.3,101,1.5c24.4,1.1,37.7,5.2,46.4,8.6c11.6,4.5,20,10,28.8,18.8
		c8.8,8.8,14.1,17.1,18.8,28.8c3.4,8.8,7.5,22.1,8.6,46.4c1.2,26.3,1.5,34.2,1.5,101s-0.3,74.7-1.5,101c-1.1,24.4-5.2,37.7-8.6,46.4
		c-4.5,11.6-10,20-18.8,28.8c-8.8,8.8-17.1,14.1-28.8,18.8c-8.8,3.4-22.1,7.5-46.4,8.6c-26.3,1.2-34.2,1.5-101,1.5
		s-74.7-0.3-101-1.5c-24.4-1.1-37.7-5.2-46.4-8.6c-11.6-4.5-20-10-28.8-18.8c-8.8-8.8-14.1-17.1-18.8-28.8
		c-3.4-8.8-7.5-22.1-8.6-46.4C45.3,324.7,45.1,316.7,45.1,250z"/>
</g>
</svg>
