<svg id="visual" viewBox="0 0 960 540" width="960" height="540" xmlns="http://www.w3.org/2000/svg" xmlns:xlink="http://www.w3.org/1999/xlink" version="1.1"><rect x="0" y="0" width="960" height="540" fill="#4FACF7"></rect><path d="M0 436L32 426.7C64 417.3 128 398.7 192 395C256 391.3 320 402.7 384 413.3C448 424 512 434 576 433.3C640 432.7 704 421.3 768 411.7C832 402 896 394 928 390L960 386L960 541L928 541C896 541 832 541 768 541C704 541 640 541 576 541C512 541 448 541 384 541C320 541 256 541 192 541C128 541 64 541 32 541L0 541Z" fill="#001122" stroke-linecap="round" stroke-linejoin="miter"></path></svg>