<svg id="visual" viewBox="0 0 900 200" width="900" height="200" xmlns="http://www.w3.org/2000/svg" xmlns:xlink="http://www.w3.org/1999/xlink" version="1.1"><rect x="0" y="0" width="900" height="200" fill="#4FACF7"></rect><path d="M0 47L8.8 46.5C17.7 46 35.3 45 53 45.2C70.7 45.3 88.3 46.7 106 48.2C123.7 49.7 141.3 51.3 159 54.8C176.7 58.3 194.3 63.7 212 69.3C229.7 75 247.3 81 265 82.5C282.7 84 300.3 81 318 77.8C335.7 74.7 353.3 71.3 371 66.2C388.7 61 406.3 54 423.8 54C441.3 54 458.7 61 476.2 61.3C493.7 61.7 511.3 55.3 529 51.8C546.7 48.3 564.3 47.7 582 54C599.7 60.3 617.3 73.7 635 73C652.7 72.3 670.3 57.7 688 57.2C705.7 56.7 723.3 70.3 741 76.2C758.7 82 776.3 80 794 76C811.7 72 829.3 66 847 65.5C864.7 65 882.3 70 891.2 72.5L900 75L900 0L891.2 0C882.3 0 864.7 0 847 0C829.3 0 811.7 0 794 0C776.3 0 758.7 0 741 0C723.3 0 705.7 0 688 0C670.3 0 652.7 0 635 0C617.3 0 599.7 0 582 0C564.3 0 546.7 0 529 0C511.3 0 493.7 0 476.2 0C458.7 0 441.3 0 423.8 0C406.3 0 388.7 0 371 0C353.3 0 335.7 0 318 0C300.3 0 282.7 0 265 0C247.3 0 229.7 0 212 0C194.3 0 176.7 0 159 0C141.3 0 123.7 0 106 0C88.3 0 70.7 0 53 0C35.3 0 17.7 0 8.8 0L0 0Z" fill="#001122" stroke-linecap="round" stroke-linejoin="miter"></path></svg>